<svg width="16" height="14" viewBox="0 0 16 14" fill="none" xmlns="http://www.w3.org/2000/svg">
<path d="M6.70542 13.0695C6.32541 13.0704 5.95544 12.9476 5.65141 12.7198L5.63243 12.7056L1.66672 9.6744C1.48304 9.53371 1.32889 9.35824 1.21308 9.15801C1.09727 8.95778 1.02207 8.73673 0.991749 8.50745C0.961433 8.27818 0.976601 8.04519 1.0364 7.82177C1.09619 7.59836 1.19945 7.38891 1.34025 7.20537C1.48105 7.02183 1.65665 6.8678 1.85703 6.75207C2.0574 6.63634 2.27862 6.56119 2.50806 6.53089C2.73751 6.5006 2.97067 6.51575 3.19424 6.57551C3.41782 6.63526 3.62743 6.73843 3.8111 6.87913L6.37974 8.84762L12.4493 0.934689C12.7336 0.564307 13.1534 0.321902 13.6165 0.260774C14.0796 0.199646 14.548 0.324796 14.9188 0.608712L14.8814 0.661369L14.9199 0.608712C15.2901 0.893212 15.5323 1.31284 15.5934 1.77555C15.6544 2.23826 15.5294 2.70628 15.2456 3.07696L8.1062 12.3802C7.94078 12.5941 7.72831 12.7672 7.48522 12.8859C7.24213 13.0046 6.97495 13.0658 6.70438 13.0648L6.70542 13.0695Z" fill="white"/>
</svg>
