<svg width="116" height="21" viewBox="0 0 116 21" fill="none" xmlns="http://www.w3.org/2000/svg">
<path d="M3.26909 12.2693L2.43509 11.4353C0.162261 9.16246 0.162261 5.47746 2.43509 3.20462C4.70793 0.931792 8.39293 0.931792 10.6658 3.20462L11.4998 4.03862L8.81701 8.75154L3.26909 12.2693Z" fill="#FF772D"/>
<path d="M20.5635 3.20462C18.2907 0.931792 14.6057 0.931792 12.3328 3.20462L11.4988 4.03862L11.0781 7.86905L11.4988 9.72621L15.1766 6.0484C15.6349 5.59016 16.17 5.52171 16.4482 5.52171C16.7263 5.52171 17.2614 5.59016 17.7197 6.0484C18.178 6.50669 18.2464 7.04179 18.2464 7.31994C18.2464 7.59809 18.1779 8.13319 17.7197 8.59148L11.4988 14.8124L11.0781 16.5793L11.4988 20.5L20.5635 11.4353C22.8363 9.16246 22.8363 5.47746 20.5635 3.20462Z" fill="#282866"/>
<path d="M8.95713 12.2692L11.5002 9.72617V4.03857L3.26953 12.2692L11.5002 20.5V14.8123L8.95713 12.2692Z" fill="#4A4080"/>
<path d="M33.5089 8.17401C33.4577 7.65838 33.2383 7.25781 32.8505 6.9723C32.4627 6.68679 31.9364 6.54403 31.2717 6.54403C30.82 6.54403 30.4386 6.60795 30.1275 6.7358C29.8164 6.85937 29.5778 7.03196 29.4116 7.25355C29.2496 7.47514 29.1687 7.72656 29.1687 8.00781C29.1602 8.24219 29.2092 8.44673 29.3157 8.62145C29.4265 8.79616 29.5778 8.94744 29.7695 9.07528C29.9613 9.19886 30.1829 9.30753 30.4343 9.40128C30.6857 9.49077 30.9542 9.56747 31.2397 9.63139L32.4158 9.91264C32.9869 10.0405 33.511 10.2109 33.9883 10.424C34.4656 10.6371 34.8789 10.8991 35.2283 11.2102C35.5778 11.5213 35.8484 11.8878 36.0401 12.3097C36.2362 12.7315 36.3363 13.2152 36.3406 13.7607C36.3363 14.5618 36.1317 15.2564 35.7269 15.8445C35.3263 16.4283 34.7468 16.8821 33.9883 17.206C33.234 17.5256 32.3242 17.6854 31.2589 17.6854C30.2021 17.6854 29.2816 17.5234 28.4975 17.1996C27.7177 16.8757 27.1083 16.3963 26.6694 15.7614C26.2347 15.1222 26.0067 14.3317 25.9854 13.3899H28.6637C28.6935 13.8288 28.8192 14.1953 29.0408 14.4893C29.2667 14.7791 29.5671 14.9986 29.9421 15.1477C30.3214 15.2926 30.7496 15.3651 31.2269 15.3651C31.6957 15.3651 32.1026 15.2969 32.4478 15.1605C32.7972 15.0241 33.0678 14.8345 33.2596 14.5916C33.4513 14.3487 33.5472 14.0696 33.5472 13.7543C33.5472 13.4602 33.4599 13.2131 33.2852 13.0128C33.1147 12.8125 32.8633 12.642 32.5309 12.5014C32.2028 12.3608 31.8001 12.233 31.3228 12.1179L29.8974 11.7599C28.7937 11.4915 27.9222 11.0717 27.283 10.5007C26.6438 9.92969 26.3263 9.16051 26.3306 8.19318C26.3263 7.40057 26.5373 6.7081 26.9634 6.11577C27.3938 5.52344 27.984 5.06108 28.734 4.72869C29.484 4.39631 30.3363 4.23011 31.2908 4.23011C32.2624 4.23011 33.1104 4.39631 33.8349 4.72869C34.5636 5.06108 35.1303 5.52344 35.5352 6.11577C35.94 6.7081 36.1488 7.39418 36.1616 8.17401H33.5089ZM38.2022 4.40909H41.6156L45.2207 13.2045H45.3741L48.9792 4.40909H52.3926V17.5H49.7079V8.9794H49.5993L46.2115 17.4361H44.3833L40.9956 8.94744H40.8869V17.5H38.2022V4.40909ZM54.6729 4.40909H58.0863L61.6914 13.2045H61.8448L65.4499 4.40909H68.8633V17.5H66.1786V8.9794H66.07L62.6822 17.4361H60.854L57.4663 8.94744H57.3576V17.5H54.6729V4.40909Z" fill="#282866"/>
<path d="M78.2452 8.17401C78.1941 7.65838 77.9746 7.25781 77.5868 6.9723C77.199 6.68679 76.6728 6.54403 76.008 6.54403C75.5563 6.54403 75.1749 6.60795 74.8638 6.7358C74.5527 6.85937 74.3141 7.03196 74.1479 7.25355C73.986 7.47514 73.905 7.72656 73.905 8.00781C73.8965 8.24219 73.9455 8.44673 74.052 8.62145C74.1628 8.79616 74.3141 8.94744 74.5059 9.07528C74.6976 9.19886 74.9192 9.30753 75.1706 9.40128C75.4221 9.49077 75.6905 9.56747 75.976 9.63139L77.1522 9.91264C77.7232 10.0405 78.2473 10.2109 78.7246 10.424C79.2019 10.6371 79.6152 10.8991 79.9647 11.2102C80.3141 11.5213 80.5847 11.8878 80.7765 12.3097C80.9725 12.7315 81.0726 13.2152 81.0769 13.7607C81.0726 14.5618 80.8681 15.2564 80.4632 15.8445C80.0627 16.4283 79.4831 16.8821 78.7246 17.206C77.9703 17.5256 77.0605 17.6854 75.9952 17.6854C74.9384 17.6854 74.0179 17.5234 73.2338 17.1996C72.454 16.8757 71.8446 16.3963 71.4057 15.7614C70.9711 15.1222 70.7431 14.3317 70.7218 13.3899H73.4C73.4299 13.8288 73.5556 14.1953 73.7772 14.4893C74.003 14.7791 74.3034 14.9986 74.6784 15.1477C75.0577 15.2926 75.486 15.3651 75.9632 15.3651C76.432 15.3651 76.839 15.2969 77.1841 15.1605C77.5336 15.0241 77.8042 14.8345 77.9959 14.5916C78.1877 14.3487 78.2836 14.0696 78.2836 13.7543C78.2836 13.4602 78.1962 13.2131 78.0215 13.0128C77.851 12.8125 77.5996 12.642 77.2672 12.5014C76.9391 12.3608 76.5364 12.233 76.0591 12.1179L74.6337 11.7599C73.53 11.4915 72.6586 11.0717 72.0194 10.5007C71.3801 9.92969 71.0627 9.16051 71.0669 8.19318C71.0627 7.40057 71.2736 6.7081 71.6998 6.11577C72.1301 5.52344 72.7203 5.06108 73.4703 4.72869C74.2203 4.39631 75.0726 4.23011 76.0272 4.23011C76.9988 4.23011 77.8468 4.39631 78.5712 4.72869C79.2999 5.06108 79.8667 5.52344 80.2715 6.11577C80.6763 6.7081 80.8851 7.39418 80.8979 8.17401H78.2452ZM82.9386 4.40909H86.3519L89.957 13.2045H90.1104L93.7156 4.40909H97.1289V17.5H94.4442V8.9794H94.3356L90.9478 17.4361H89.1197L85.7319 8.94744H85.6232V17.5H82.9386V4.40909ZM99.4093 4.40909H102.823L106.428 13.2045H106.581L110.186 4.40909H113.6V17.5H110.915V8.9794H110.806L107.419 17.4361H105.59L102.203 8.94744H102.094V17.5H99.4093V4.40909Z" fill="#FF772D"/>
</svg>
