<svg width="106" height="203" viewBox="0 0 106 203" fill="none" xmlns="http://www.w3.org/2000/svg">
<path d="M33.177 108.861C33.6178 108.289 33.9278 107.628 34.0851 106.923C34.2424 106.219 34.2433 105.488 34.0875 104.783C33.9317 104.078 33.6232 103.416 33.1836 102.843C32.7441 102.271 32.1841 101.801 31.5433 101.468L32.5198 90.2255L25.8268 87.9663L24.6706 103.862C24.182 104.975 24.1188 106.228 24.493 107.384C24.8672 108.54 25.6528 109.519 26.701 110.136C27.7491 110.752 28.9871 110.963 30.1804 110.728C31.3736 110.493 32.4392 109.829 33.1754 108.862L33.177 108.861Z" fill="#FFB8B8"/>
<path d="M66.571 196.266H60.5489L57.6836 173.042H66.5758L66.571 196.266Z" fill="#FFB8B8"/>
<path d="M56.2436 194.545H67.8631V201.855H48.9277C48.9277 199.917 49.6985 198.057 51.0705 196.686C52.4425 195.315 54.3033 194.545 56.2436 194.545Z" fill="#2F2E41"/>
<path d="M52.8964 180.856L47.0467 182.293L38.7168 160.426L47.3518 158.305L52.8964 180.856Z" fill="#FFB8B8"/>
<path d="M42.5393 181.44L53.8218 178.665L55.5703 185.764L37.184 190.286C36.7203 188.403 37.024 186.414 38.0283 184.755C39.0326 183.096 40.6552 181.904 42.5393 181.44Z" fill="#2F2E41"/>
<path d="M59.5223 188.86C58.9721 188.862 58.441 188.659 58.0319 188.292C57.6229 187.924 57.3652 187.417 57.3089 186.87L50.3777 122.334L44.3451 142.069L52.8895 172.893C53.0365 173.422 52.983 173.986 52.7394 174.477C52.4957 174.969 52.079 175.353 51.5693 175.556L44.7762 178.271C44.4965 178.383 44.1971 178.437 43.8959 178.43C43.5948 178.423 43.2982 178.355 43.0241 178.23C42.75 178.105 42.5041 177.926 42.3012 177.704C42.0982 177.481 41.9425 177.22 41.8434 176.936L31.3723 146.914C30.226 143.637 29.7188 140.169 29.8783 136.701L31.3397 104.302L69.8338 105.931L69.233 186.089C69.2259 186.647 69.0105 187.183 68.6292 187.59C68.2479 187.998 67.728 188.249 67.1713 188.294L59.6957 188.857C59.6374 188.859 59.5796 188.86 59.5223 188.86Z" fill="#2F2E41"/>
<path d="M53.1469 32.5999C60.2956 32.5999 66.0907 26.809 66.0907 19.6657C66.0907 12.5223 60.2956 6.73145 53.1469 6.73145C45.9983 6.73145 40.2031 12.5223 40.2031 19.6657C40.2031 26.809 45.9983 32.5999 53.1469 32.5999Z" fill="#FFB8B8"/>
<path d="M62.6645 108.038C59.2559 108.038 55.0229 107.76 50.6398 107.472C44.653 107.078 38.4628 106.671 33.8415 106.938C33.2175 107 32.588 106.901 32.0131 106.651C31.4381 106.401 30.9369 106.008 30.5572 105.509C25.7936 99.4138 33.1395 75.6455 33.4557 74.637L39.4341 48.0597C40.7516 42.2143 44.9524 37.9024 50.4027 36.807C55.5041 35.7833 60.4385 37.8239 63.6031 42.2707C63.7711 42.5066 63.9388 42.7487 64.1064 42.9969C74.4104 58.2461 68.5823 96.1324 68.1918 98.5754C68.7361 99.2268 71.6795 102.91 70.8705 105.469C70.5411 106.51 69.6474 107.22 68.2134 107.576C66.3864 107.937 64.5245 108.092 62.663 108.037L62.6645 108.038Z" fill="#FF772D"/>
<path d="M34.0503 108.049C32.8777 108.049 31.2961 107.617 29.1639 106.733C28.2474 106.352 25.4585 105.193 28.8445 75.6247C30.5077 61.1006 32.8903 46.6776 32.914 46.5339L32.9367 46.3949L33.0653 46.3369C33.1264 46.309 39.2112 43.5222 40.2695 39.9406C40.3046 39.8167 40.3457 39.6965 40.3928 39.5799C40.6839 38.7838 41.2715 38.1308 42.0329 37.7571C42.7943 37.3835 43.6707 37.3181 44.4792 37.5746C45.3332 37.7785 46.0777 38.2995 46.5613 39.0319C47.045 39.7642 47.2318 40.653 47.0837 41.5179C46.7152 43.8539 46.0066 46.1234 44.9804 48.2543C42.1171 54.1577 40.1772 69.8077 40.1583 69.9651C40.0487 71.3017 37.4505 102.969 36.9499 105.372C36.7749 106.212 36.4534 107.238 35.5095 107.737C35.0567 107.96 34.556 108.068 34.0513 108.053L34.0503 108.049Z" fill="#2F2E41"/>
<path d="M48.1914 106.837C47.9549 106.837 47.7251 106.758 47.5384 106.613C43.7302 103.721 49.8931 68.6695 53.5463 56.5758C54.2783 54.1533 54.9297 52.0801 55.4836 50.4112C56.4926 47.4167 57.1969 44.328 57.5858 41.1923C57.7871 39.4934 58.224 38.5234 58.9228 38.2258C59.4082 38.0189 59.9768 38.1595 60.6197 38.6434C63.9963 38.477 67.2769 39.8547 70.3167 41.3718L73.0529 42.7358L76.1232 97.0557C76.0363 100.522 69.1978 102.97 66.2155 103.126C61.4255 103.377 52.8243 104.157 49.0351 106.554C48.7868 106.726 48.4942 106.824 48.1919 106.836L48.1914 106.837Z" fill="#2F2E41"/>
<path d="M31.087 96.644C31.0417 96.644 30.9964 96.644 30.9505 96.6398L24.7487 96.2585C24.44 96.2396 24.1385 96.1567 23.8636 96.015C23.5886 95.8734 23.3462 95.676 23.1517 95.4357C22.9573 95.1953 22.815 94.917 22.734 94.6187C22.653 94.3204 22.635 94.0085 22.6813 93.7028L25.4876 75.1243L30.7703 49.0569C30.9004 48.4147 31.1641 47.8071 31.5443 47.2734C31.9245 46.7396 32.4127 46.2917 32.9773 45.9586C33.5418 45.6255 34.1701 45.4147 34.8215 45.3397C35.4728 45.2648 36.1326 45.3275 36.7581 45.5238C37.8275 45.8647 38.7396 46.5764 39.3299 47.5305C39.9202 48.4845 40.1497 49.6179 39.9771 50.7262L35.78 76.8464L33.2952 94.7234C33.2188 95.2551 32.9537 95.7415 32.5482 96.0941C32.1428 96.4467 31.6245 96.6419 31.087 96.644Z" fill="#2F2E41"/>
<path d="M52.2717 76.3091C52.65 75.6941 53.1586 75.1694 53.7617 74.772C54.3648 74.3747 55.0478 74.1143 55.7625 74.0092C56.4773 73.9041 57.2064 73.9569 57.8985 74.1638C58.5906 74.3707 59.2289 74.7268 59.7684 75.2069L69.937 70.2988L74.4291 75.7461L59.9718 82.4758C59.1045 83.3279 57.9546 83.8326 56.7398 83.8942C55.5251 83.9557 54.33 83.5699 53.3809 82.8098C52.4318 82.0497 51.7946 80.9681 51.5902 79.77C51.3858 78.5719 51.6283 77.3405 52.2717 76.3091Z" fill="#FFB8B8"/>
<path d="M66.3984 81.5797C65.8978 81.5797 65.4117 81.4113 65.0184 81.1017C64.6252 80.7922 64.3476 80.3593 64.2303 79.873L62.7547 73.7379C62.642 73.2765 62.6805 72.7911 62.8645 72.3532C63.0486 71.9153 63.3685 71.548 63.7771 71.3054L72.6835 65.9782L68.1302 49.3192C67.7363 47.8926 67.9169 46.3687 68.6334 45.0735C69.3499 43.7783 70.5454 42.8149 71.9638 42.3894C73.3823 41.964 74.9111 42.1104 76.2229 42.7972C77.5348 43.484 78.5254 44.6567 78.9828 46.0642L84.0099 61.4019C84.6275 63.2715 84.6324 65.2893 84.0238 67.1618C83.4153 69.0344 82.225 70.6643 80.626 71.8147L67.7038 81.1568C67.3241 81.4317 66.8673 81.5796 66.3984 81.5797Z" fill="#2F2E41"/>
<path d="M105.474 202.5H1.12661C0.986844 202.5 0.852806 202.445 0.753973 202.346C0.655141 202.247 0.599609 202.113 0.599609 201.973C0.599609 201.834 0.655141 201.7 0.753973 201.601C0.852806 201.502 0.986844 201.447 1.12661 201.447H105.474C105.613 201.447 105.748 201.502 105.846 201.601C105.945 201.7 106.001 201.834 106.001 201.973C106.001 202.113 105.945 202.247 105.846 202.346C105.748 202.445 105.613 202.5 105.474 202.5Z" fill="#CCCCCC"/>
<path d="M57.9047 23.1132C57.9047 23.1132 56.3296 14.4103 52.7454 15.4501C49.1611 16.4899 39.9367 17.5538 39.9196 13.4551C39.9025 9.3565 48.6026 5.73376 53.7318 6.22407C58.861 6.71438 67.5829 8.21444 67.1029 15.9014C66.7184 20.7427 65.2209 25.4301 62.7272 29.5986L57.9047 23.1132Z" fill="#2F2E41"/>
</svg>
