<svg width="319" height="238" viewBox="0 0 319 238" fill="none" xmlns="http://www.w3.org/2000/svg">
<circle cx="60.5" cy="172.5" r="64.5" stroke="#FF772D" stroke-opacity="0.1" stroke-width="2" stroke-dasharray="4 4"/>
<path opacity="0.7" d="M112.064 172.653C112.68 171.559 112.867 170.275 112.585 169.053C112.304 167.83 111.576 166.754 110.541 166.034L104.978 162.144H104.979C104.674 161.93 104.501 161.575 104.522 161.205L104.928 154.46C105.006 153.208 104.613 151.972 103.825 150.992C103.038 150.011 101.912 149.355 100.666 149.152L93.9522 148.044H93.9515C93.583 147.984 93.2715 147.739 93.1308 147.394L90.5493 141.143C90.0725 139.982 89.178 139.037 88.0401 138.493C86.9023 137.949 85.6006 137.843 84.389 138.197L77.8583 140.091C77.4996 140.196 77.1107 140.108 76.8337 139.859L71.7753 135.339C70.8379 134.498 69.6192 134.032 68.3563 134.032C67.0934 134.032 65.8746 134.498 64.9373 135.339L59.8804 139.859C59.6033 140.108 59.2151 140.196 58.8565 140.091L52.3236 138.197H52.3243C51.1119 137.843 49.8109 137.949 48.6732 138.493C47.5347 139.037 46.6409 139.981 46.1634 141.142L43.5819 147.394C43.4391 147.737 43.129 147.982 42.7612 148.044L36.0497 149.152C34.8022 149.355 33.6756 150.01 32.8881 150.991C32.0998 151.972 31.7067 153.209 31.7848 154.46L32.1912 161.205C32.2151 161.575 32.0422 161.931 31.7356 162.144L26.1717 166.034C25.1373 166.754 24.4094 167.829 24.1281 169.053C23.8468 170.275 24.0324 171.559 24.6499 172.653L27.9634 178.554C28.1462 178.878 28.1462 179.274 27.9634 179.598L24.6499 185.5V185.499C24.0324 186.594 23.8468 187.877 24.1281 189.1C24.4087 190.323 25.1372 191.399 26.1717 192.119L31.7356 196.01V196.009C32.0422 196.221 32.2152 196.577 32.1912 196.948L31.7848 203.693C31.7074 204.945 32.0998 206.181 32.8881 207.162C33.6757 208.142 34.8016 208.798 36.0485 209.001L42.7614 210.109C43.1292 210.171 43.4393 210.416 43.5821 210.758L46.1636 217.01C46.6404 218.171 47.5349 219.116 48.6728 219.66C49.8113 220.204 51.1123 220.31 52.3246 219.956L58.8575 218.062H58.8568C59.2155 217.956 59.6044 218.044 59.8807 218.294L64.9376 222.814C65.875 223.655 67.0938 224.121 68.3567 224.121C69.6203 224.121 70.839 223.655 71.7757 222.814L76.8347 218.294C77.1111 218.044 77.4993 217.956 77.8579 218.062L84.3894 219.956C85.6011 220.31 86.902 220.203 88.0398 219.66C89.1783 219.115 90.0721 218.171 90.5495 217.01L93.1296 210.76C93.271 210.416 93.5825 210.168 93.9517 210.109L100.665 209.001H100.666C101.912 208.798 103.039 208.142 103.826 207.161C104.613 206.18 105.006 204.944 104.928 203.692L104.522 196.948C104.501 196.578 104.673 196.224 104.978 196.008L110.541 192.119V192.119C111.576 191.399 112.304 190.323 112.586 189.1C112.866 187.877 112.681 186.594 112.064 185.499L108.75 179.597L108.75 179.598C108.567 179.274 108.567 178.879 108.75 178.555L112.064 172.653ZM57.4351 158.954C59.914 158.954 62.2909 159.932 64.0432 161.672C65.7957 163.413 66.7802 165.772 66.7802 168.233C66.7802 170.694 65.7949 173.054 64.0425 174.794C62.2901 176.534 59.9131 177.512 57.4343 177.512C54.9554 177.512 52.5785 176.534 50.8262 174.794C49.0738 173.054 48.0893 170.694 48.0893 168.233C48.0921 165.772 49.0773 163.414 50.8298 161.675C52.5822 159.935 54.9577 158.956 57.4351 158.954ZM79.2775 199.198C76.7985 199.198 74.4217 198.221 72.6686 196.48C70.9162 194.74 69.9317 192.38 69.9317 189.919C69.9317 187.458 70.9162 185.098 72.6686 183.358C74.4217 181.618 76.7985 180.64 79.2768 180.64C81.7557 180.64 84.1326 181.618 85.8857 183.358C87.6381 185.098 88.6226 187.458 88.6226 189.92C88.6198 192.38 87.6338 194.738 85.8821 196.478C84.1303 198.217 81.7548 199.195 79.2773 199.199L79.2775 199.198ZM88.2407 163.58L52.747 198.82C51.9826 199.576 50.8701 199.87 49.8279 199.592C48.7858 199.314 47.9715 198.505 47.6923 197.471C47.4124 196.436 47.7092 195.332 48.4708 194.573L83.9627 159.333C84.7271 158.575 85.8403 158.279 86.8839 158.556C87.9275 158.834 88.7425 159.643 89.0217 160.679C89.3016 161.715 89.0034 162.821 88.2397 163.579L88.2407 163.58Z" fill="#FF772D"/>
<g filter="url(#filter0_d_1282_12165)">
<path d="M154.318 200.051C202.744 200.051 242 160.641 242 112.026C242 63.4105 202.744 24 154.318 24C105.893 24 66.6367 63.4105 66.6367 112.026C66.6367 160.641 105.893 200.051 154.318 200.051Z" fill="url(#paint0_linear_1282_12165)"/>
<path fill-rule="evenodd" clip-rule="evenodd" d="M106.327 111.097C131.888 99.9162 148.932 92.5455 157.461 88.9845C181.811 78.8165 186.87 77.0505 190.168 76.9921C190.894 76.9793 192.516 77.1598 193.566 78.0154C194.453 78.738 194.697 79.7143 194.814 80.3991C194.931 81.0842 195.076 82.6452 194.96 83.8647C193.641 97.7834 187.931 131.561 185.026 147.15C183.797 153.747 181.377 155.959 179.034 156.175C173.942 156.645 170.076 152.797 165.144 149.552C157.427 144.473 153.067 141.312 145.577 136.356C136.92 130.629 142.532 127.481 147.465 122.337C148.756 120.99 171.191 100.504 171.625 98.6457C171.68 98.4132 171.73 97.5469 171.217 97.0895C170.705 96.6321 169.948 96.7884 169.402 96.9127C168.628 97.0891 156.3 105.27 132.417 121.454C128.918 123.867 125.748 125.042 122.909 124.98C119.778 124.913 113.756 123.203 109.279 121.742C103.788 119.95 99.4235 119.003 99.8035 115.96C100.001 114.374 102.176 112.754 106.327 111.097Z" fill="white"/>
</g>
<path d="M287.756 30.592C287.647 30.5392 287.551 30.4402 287.487 30.3125L281.441 18.0708C281.35 17.8848 281.335 17.6623 281.401 17.4805C281.467 17.2987 281.605 17.1837 281.767 17.1747L312.366 15.8609C312.595 15.8514 312.814 16.0545 312.887 16.3436C312.96 16.6333 312.866 16.9258 312.663 17.0392L288.102 30.6053C287.994 30.6567 287.871 30.6522 287.756 30.592ZM282.652 18.3648L288.022 29.2358L309.851 17.1972L282.652 18.3648Z" fill="#24A2DF" fill-opacity="0.4"/>
<path d="M299.108 48.1745C299.022 48.1318 298.944 48.0602 298.884 47.9677L289.795 34.2181C289.701 34.0765 289.656 33.8966 289.67 33.7241C289.684 33.5523 289.757 33.4042 289.869 33.3181L312.166 15.9635C312.345 15.8202 312.591 15.8653 312.761 16.0719C312.93 16.279 312.978 16.5931 312.876 16.8306L299.66 47.9382C299.589 48.106 299.453 48.2092 299.298 48.2141C299.234 48.2174 299.17 48.2035 299.108 48.1738L299.108 48.1745ZM290.852 34.0435L299.099 46.5198L311.086 18.2458L290.852 34.0435Z" fill="#24A2DF" fill-opacity="0.4"/>
<path d="M285.38 40.0017C285.218 39.9225 285.091 39.7444 285.046 39.5321C285.001 39.3198 285.044 39.1044 285.16 38.9651L289.779 33.3799C289.866 33.2748 289.987 33.2232 290.114 33.2359C290.24 33.2491 290.364 33.3264 290.456 33.4501C290.648 33.7082 290.656 34.0949 290.474 34.3139L286.936 38.5911L292.379 37.7629L292.379 37.7634C292.637 37.7251 292.893 37.9663 292.952 38.3027C293.01 38.639 292.848 38.9424 292.589 38.9807L285.614 40.0343C285.537 40.0478 285.457 40.0366 285.38 40.0017Z" fill="#24A2DF" fill-opacity="0.4"/>
<path d="M285.383 40.0024C285.261 39.9375 285.16 39.8159 285.101 39.6642C285.042 39.5132 285.031 39.3443 285.069 39.1953L287.44 29.7778C287.522 29.4703 287.789 29.3301 288.041 29.4615C288.162 29.5264 288.264 29.648 288.323 29.7995C288.382 29.9512 288.393 30.1196 288.355 30.2688L285.983 39.6864C285.945 39.8353 285.861 39.9522 285.748 40.0117C285.635 40.0709 285.504 40.0678 285.383 40.0024Z" fill="#24A2DF" fill-opacity="0.4"/>
<path d="M264.227 54.5087C264.046 54.4203 263.91 54.2094 263.881 53.9691C263.851 53.7291 263.933 53.5041 264.09 53.3943L281.175 41.3433C281.396 41.1882 281.693 41.3068 281.839 41.6077C281.985 41.9086 281.924 42.2785 281.703 42.4331L264.624 54.4578C264.51 54.5506 264.365 54.5693 264.227 54.5091L264.227 54.5087Z" fill="#24A2DF" fill-opacity="0.4"/>
<path d="M273.292 34.4404C273.111 34.352 272.976 34.1408 272.946 33.9008C272.916 33.6603 272.998 33.4355 273.155 33.3255L281.129 27.7138C281.35 27.5588 281.647 27.6774 281.793 27.9783C281.939 28.2792 281.878 28.6486 281.657 28.8036L273.683 34.4157C273.568 34.4962 273.425 34.5055 273.292 34.4404Z" fill="#24A2DF" fill-opacity="0.4"/>
<path d="M281.788 54.7372C281.607 54.6486 281.472 54.4379 281.442 54.1974C281.413 53.9571 281.495 53.7321 281.651 53.6221L292.893 45.7331L292.892 45.7336C293.113 45.5785 293.411 45.6973 293.556 45.998C293.702 46.2989 293.641 46.6688 293.42 46.8234L282.207 54.7257C282.083 54.8126 281.929 54.817 281.788 54.7372Z" fill="#24A2DF" fill-opacity="0.4"/>
<path d="M270.833 56.8656C270.652 56.7772 270.517 56.5663 270.487 56.326C270.458 56.0856 270.54 55.8606 270.697 55.7505L287.509 43.893L287.509 43.8932C287.73 43.7386 288.027 43.8568 288.173 44.1581C288.319 44.459 288.258 44.8284 288.037 44.9835L271.225 56.841L271.224 56.8408C271.109 56.922 270.966 56.9306 270.833 56.8656Z" fill="#24A2DF" fill-opacity="0.4"/>
<path d="M264.652 46.9965C264.471 46.9079 264.335 46.6972 264.306 46.4567C264.276 46.2167 264.358 45.9919 264.515 45.8819L281.496 33.9131C281.717 33.7582 282.015 33.8768 282.16 34.1777C282.306 34.4784 282.245 34.8485 282.024 35.0029L265.037 46.9688C264.923 47.0487 264.783 47.0584 264.652 46.9962L264.652 46.9965Z" fill="#24A2DF" fill-opacity="0.4"/>
<path opacity="0.1" fill-rule="evenodd" clip-rule="evenodd" d="M229.483 84.0176C229.516 84.7181 229.631 85.4219 229.839 86.1275C230.567 88.6035 233.493 90.1105 236.563 90.3848C239.632 90.6591 242.781 89.6944 243.933 87.4805C244.592 86.2148 244.652 85.1409 244.336 84.2479C244.02 83.3596 243.319 82.638 242.381 82.0889C239.768 80.5593 235.274 80.3801 233.251 81.1243C232.316 81.469 231.405 81.8771 230.519 82.3387C230.939 79.4974 232.766 76.7577 235.244 74.261C240.628 68.8347 249.122 64.568 253.772 62.9479C254.022 62.8609 254.153 62.5879 254.066 62.338C253.979 62.0881 253.706 61.9557 253.456 62.0428C248.714 63.6949 240.055 68.0519 234.564 73.5858C231.728 76.4442 229.745 79.621 229.498 82.8992C222.995 86.6611 217.773 93.2651 213.305 98.8252C213.139 99.0304 213.172 99.3329 213.379 99.499C213.585 99.6638 213.886 99.6319 214.052 99.4255C218.338 94.093 223.307 87.7539 229.483 84.0176ZM230.428 83.4717C230.418 84.2607 230.522 85.0581 230.759 85.8582C231.388 88.0013 233.991 89.1937 236.648 89.4311C238.277 89.5759 239.94 89.3555 241.228 88.7267C242.039 88.3317 242.698 87.7761 243.082 87.0373C243.587 86.0683 243.675 85.2512 243.432 84.5686C243.189 83.8811 242.624 83.3412 241.898 82.9169C239.516 81.5222 235.424 81.3464 233.583 82.024C232.497 82.4234 231.447 82.9112 230.428 83.4717Z" fill="#23A0DD" fill-opacity="0.6"/>
<defs>
<filter id="filter0_d_1282_12165" x="44.0026" y="6.53943" width="220.632" height="221.319" filterUnits="userSpaceOnUse" color-interpolation-filters="sRGB">
<feFlood flood-opacity="0" result="BackgroundImageFix"/>
<feColorMatrix in="SourceAlpha" type="matrix" values="0 0 0 0 0 0 0 0 0 0 0 0 0 0 0 0 0 0 127 0" result="hardAlpha"/>
<feOffset dy="5.1735"/>
<feGaussianBlur stdDeviation="11.317"/>
<feComposite in2="hardAlpha" operator="out"/>
<feColorMatrix type="matrix" values="0 0 0 0 0.141176 0 0 0 0 0.635294 0 0 0 0 0.878431 0 0 0 0.2 0"/>
<feBlend mode="normal" in2="BackgroundImageFix" result="effect1_dropShadow_1282_12165"/>
<feBlend mode="normal" in="SourceGraphic" in2="effect1_dropShadow_1282_12165" result="shape"/>
</filter>
<linearGradient id="paint0_linear_1282_12165" x1="154.318" y1="24" x2="154.318" y2="198.746" gradientUnits="userSpaceOnUse">
<stop stop-color="#2AABEE"/>
<stop offset="1" stop-color="#229ED9"/>
</linearGradient>
</defs>
</svg>
