<svg width="456" height="348" viewBox="0 0 456 348" fill="none" xmlns="http://www.w3.org/2000/svg">
<circle cx="126.5" cy="256.5" r="90.5" stroke="#FF772D" stroke-opacity="0.1" stroke-width="2" stroke-dasharray="4 4"/>
<path opacity="0.7" d="M190.055 248.159C190.952 246.568 191.223 244.702 190.814 242.924C190.405 241.145 189.346 239.582 187.841 238.534L179.752 232.878H179.753C179.309 232.567 179.059 232.051 179.088 231.513L179.679 221.704C179.793 219.883 179.221 218.086 178.076 216.661C176.931 215.234 175.294 214.281 173.482 213.986L163.719 212.374H163.718C163.182 212.288 162.729 211.931 162.525 211.43L158.771 202.34C158.078 200.651 156.777 199.278 155.122 198.487C153.468 197.695 151.575 197.541 149.813 198.055L140.317 200.81C139.795 200.963 139.23 200.835 138.827 200.473L131.471 193.9C130.108 192.677 128.336 192 126.499 192C124.663 192 122.891 192.677 121.528 193.9L114.174 200.473C113.772 200.834 113.207 200.962 112.686 200.81L103.186 198.055H103.187C101.424 197.541 99.5323 197.695 97.8778 198.486C96.2223 199.278 94.9226 200.65 94.2284 202.339L90.4745 211.43C90.2669 211.929 89.816 212.285 89.2811 212.374L79.5218 213.986C77.7077 214.281 76.0695 215.233 74.9244 216.66C73.7781 218.086 73.2065 219.884 73.32 221.705L73.9111 231.512C73.9458 232.051 73.6943 232.569 73.2485 232.877L65.1579 238.534C63.6537 239.581 62.5954 241.145 62.1862 242.924C61.7772 244.702 62.0472 246.568 62.945 248.159L67.7633 256.741C68.0291 257.212 68.0291 257.786 67.7633 258.257L62.945 266.84V266.839C62.0472 268.431 61.7772 270.297 62.1862 272.075C62.5942 273.853 63.6536 275.417 65.1579 276.465L73.2485 282.123V282.122C73.6943 282.43 73.9459 282.948 73.9111 283.486L73.32 293.295C73.2075 295.116 73.7781 296.913 74.9244 298.339C76.0697 299.765 77.7069 300.718 79.52 301.013L89.2814 302.625C89.8162 302.714 90.2672 303.07 90.4747 303.569L94.2286 312.659C94.9219 314.348 96.2227 315.721 97.8773 316.512C99.5328 317.304 101.425 317.458 103.187 316.944L112.687 314.189H112.686C113.208 314.035 113.773 314.163 114.175 314.526L121.528 321.099C122.891 322.323 124.664 323 126.5 323C128.338 323 130.11 322.323 131.472 321.099L138.828 314.526C139.23 314.163 139.795 314.035 140.316 314.189L149.814 316.944C151.576 317.458 153.467 317.303 155.122 316.512C156.777 315.72 158.077 314.348 158.771 312.66L162.523 303.571C162.728 303.071 163.181 302.711 163.718 302.625L173.481 301.014H173.482C175.294 300.718 176.932 299.765 178.077 298.338C179.222 296.912 179.793 295.115 179.68 293.294L179.089 283.487C179.059 282.949 179.309 282.433 179.751 282.121L187.842 276.464V276.465C189.346 275.418 190.405 273.853 190.814 272.075C191.222 270.297 190.952 268.431 190.056 266.839L185.237 258.256L185.236 258.257C184.97 257.786 184.97 257.213 185.236 256.742L190.055 248.159ZM110.619 228.238C114.223 228.238 117.68 229.661 120.228 232.191C122.776 234.722 124.208 238.154 124.208 241.732C124.208 245.311 122.775 248.743 120.227 251.273C117.679 253.803 114.222 255.224 110.618 255.224C107.013 255.224 103.557 253.803 101.009 251.273C98.4604 248.743 97.0287 245.311 97.0287 241.732C97.0328 238.154 98.4655 234.724 101.014 232.195C103.562 229.665 107.016 228.243 110.619 228.238ZM142.38 286.759C138.776 286.759 135.319 285.338 132.77 282.807C130.222 280.277 128.79 276.845 128.79 273.266C128.79 269.688 130.222 266.255 132.77 263.725C135.319 261.195 138.776 259.774 142.379 259.774C145.984 259.774 149.44 261.195 151.989 263.725C154.538 266.256 155.969 269.688 155.969 273.267C155.965 276.844 154.531 280.273 151.984 282.803C149.437 285.332 145.983 286.755 142.38 286.76L142.38 286.759ZM155.414 234.965L103.802 286.208C102.69 287.308 101.072 287.735 99.557 287.331C98.0415 286.927 96.8575 285.752 96.4515 284.247C96.0445 282.742 96.4761 281.137 97.5835 280.033L149.193 228.79C150.305 227.687 151.923 227.257 153.441 227.66C154.958 228.064 156.144 229.241 156.55 230.748C156.957 232.254 156.523 233.861 155.412 234.964L155.414 234.965Z" fill="#FF772D"/>
<g filter="url(#filter0_d_1232_12165)">
<path d="M251.5 288C321.916 288 379 230.692 379 160C379 89.3077 321.916 32 251.5 32C181.084 32 124 89.3077 124 160C124 230.692 181.084 288 251.5 288Z" fill="url(#paint0_linear_1232_12165)"/>
<path fill-rule="evenodd" clip-rule="evenodd" d="M181.714 158.649C218.883 142.391 243.668 131.674 256.069 126.495C291.477 111.71 298.834 109.142 303.63 109.057C304.685 109.038 307.043 109.301 308.571 110.545C309.86 111.596 310.215 113.015 310.385 114.011C310.555 115.007 310.767 117.277 310.598 119.051C308.68 139.29 300.377 188.407 296.153 211.076C294.366 220.668 290.847 223.884 287.44 224.199C280.036 224.883 274.413 219.286 267.242 214.567C256.02 207.182 249.681 202.586 238.788 195.379C226.2 187.051 234.361 182.474 241.535 174.994C243.412 173.036 276.035 143.246 276.666 140.544C276.746 140.206 276.819 138.946 276.073 138.281C275.328 137.616 274.227 137.843 273.433 138.024C272.308 138.281 254.381 150.176 219.653 173.71C214.565 177.218 209.956 178.927 205.826 178.838C201.274 178.739 192.517 176.254 186.007 174.129C178.022 171.524 171.676 170.146 172.229 165.721C172.517 163.415 175.678 161.059 181.714 158.649Z" fill="white"/>
</g>
<path d="M40.9834 38.6129C41.1516 38.5573 41.2947 38.4475 41.3858 38.303L49.9791 24.4421C50.1088 24.2314 50.1154 23.9747 49.9971 23.761C49.8788 23.5473 49.6519 23.4074 49.3957 23.3888L1.04397 20.3315C0.682105 20.309 0.351704 20.5329 0.258935 20.8638C0.165801 21.1953 0.336875 21.5385 0.665749 21.68L40.4378 38.6109C40.6122 38.6758 40.8071 38.6767 40.9834 38.6129ZM48.0915 24.7213L40.4592 37.0303L5.11245 22.004L48.0915 24.7213Z" fill="#24A2DF" fill-opacity="0.6"/>
<path d="M24.4328 58.3869C24.5656 58.3419 24.6826 58.2629 24.7715 58.159L38.0474 42.7062C38.1842 42.547 38.2422 42.3412 38.2067 42.1409C38.1709 41.9414 38.0451 41.7664 37.8611 41.6611L1.36742 20.4602C1.0741 20.2854 0.689245 20.3252 0.437904 20.5558C0.186764 20.7869 0.13583 21.1479 0.314503 21.4278L23.5443 58.0858C23.6699 58.2835 23.8917 58.4099 24.1376 58.4233C24.2377 58.4303 24.3385 58.4175 24.4338 58.3862L24.4328 58.3869ZM36.3663 42.451L24.3207 56.4729L3.24552 23.1553L36.3663 42.451Z" fill="#24A2DF" fill-opacity="0.6"/>
<path d="M45.4523 49.6201C45.7019 49.5366 45.8886 49.3369 45.9434 49.0935C45.9982 48.8502 45.9138 48.5988 45.7203 48.4317L38.0075 41.7372C37.8617 41.6112 37.668 41.5454 37.4687 41.5537C37.2696 41.5627 37.0814 41.6458 36.9456 41.7844C36.6627 42.0734 36.6793 42.5203 36.9832 42.7829L42.8911 47.9098L34.244 46.678L34.2442 46.6786C33.8342 46.6213 33.4486 46.8876 33.3827 47.2738C33.3168 47.66 33.5959 48.0192 34.0059 48.0765L45.0865 49.6461C45.2083 49.6655 45.334 49.6566 45.4523 49.6201Z" fill="#24A2DF" fill-opacity="0.6"/>
<path d="M45.4498 49.6199C45.636 49.5509 45.7867 49.4153 45.8681 49.2428C45.9491 49.071 45.9543 48.8761 45.8831 48.7018L41.4196 37.6858C41.2673 37.326 40.8355 37.1503 40.4479 37.2897C40.2617 37.3587 40.111 37.4943 40.0302 37.6666C39.9488 37.8391 39.9434 38.0334 40.0154 38.2081L44.4789 49.2241C44.55 49.3983 44.6922 49.5378 44.8747 49.6123C45.0565 49.6864 45.2638 49.6895 45.4498 49.6199Z" fill="#24A2DF" fill-opacity="0.6"/>
<path d="M79.9262 67.4679C80.205 67.3747 80.4028 67.1375 80.4304 66.861C80.4587 66.5848 80.3126 66.3203 80.0561 66.1853L52.1894 51.383C51.8294 51.1925 51.3701 51.3148 51.1631 51.6556C50.9561 51.9965 51.0809 52.4275 51.4406 52.6175L79.2961 67.389C79.4823 67.5021 79.713 67.5311 79.9263 67.4683L79.9262 67.4679Z" fill="#24A2DF" fill-opacity="0.6"/>
<path d="M64.0878 43.7919C64.3666 43.6987 64.5636 43.4611 64.592 43.1849C64.6201 42.9082 64.4734 42.6439 64.2175 42.5087L51.2119 35.615C50.852 35.4245 50.3926 35.5468 50.1856 35.8877C49.9787 36.2285 50.1032 36.659 50.4632 36.8495L63.469 43.7438C63.6572 43.8427 63.8825 43.8606 64.0878 43.7919Z" fill="#24A2DF" fill-opacity="0.6"/>
<path d="M52.248 66.8507C52.5274 66.7572 52.7246 66.5202 52.7527 66.2435C52.7803 65.9669 52.6342 65.7025 52.3783 65.5673L34.0461 55.8744L34.0463 55.8749C33.6863 55.6844 33.2264 55.8069 33.02 56.1476C32.813 56.4884 32.9377 56.9194 33.2975 57.1094L51.5876 66.8164C51.7892 66.9231 52.033 66.936 52.248 66.8507Z" fill="#24A2DF" fill-opacity="0.6"/>
<path d="M69.6888 69.8635C69.9676 69.7703 70.1654 69.5331 70.193 69.2565C70.2211 68.9798 70.075 68.7153 69.8191 68.5801L42.3966 54.0155L42.396 54.0156C42.0362 53.8257 41.5767 53.9475 41.3699 54.2888C41.1629 54.6297 41.2875 55.0601 41.6474 55.2507L69.0699 69.8154L69.0705 69.8152C69.2584 69.9148 69.484 69.932 69.6888 69.8635Z" fill="#24A2DF" fill-opacity="0.6"/>
<path d="M78.6753 58.755C78.9547 58.6616 79.1519 58.4246 79.18 58.1478C79.2084 57.8716 79.0617 57.6074 78.8058 57.4722L51.1083 42.7703C50.7477 42.5799 50.2884 42.7023 50.0814 43.0431C49.875 43.3837 49.9992 43.815 50.3595 44.0047L78.066 58.7037C78.2513 58.8017 78.4734 58.8201 78.676 58.7548L78.6753 58.755Z" fill="#24A2DF" fill-opacity="0.6"/>
<path opacity="0.04" fill-rule="evenodd" clip-rule="evenodd" d="M428.181 28.2097C428.046 27.3859 427.944 26.5715 427.878 25.757C427.779 24.5352 427.841 23.3041 427.805 22.0823C427.79 21.564 427.73 20.2127 427.754 20.0183C427.975 18.3245 429.307 18.0653 429.697 18.019C429.885 17.9913 431.821 17.7692 432.238 19.9721C432.751 22.6655 432.915 25.3775 432.734 28.0339C433.157 30.2923 433.88 32.5414 434.835 34.5777C438.636 42.6766 445.878 43.4633 453.725 43.3893C454.932 43.3708 455.934 44.3426 455.997 45.5737C456.06 46.8139 455.162 47.8876 453.96 47.9987C449.574 48.4337 441.792 52.0435 439.102 55.8014C438.539 56.5881 438.212 58.4856 437.779 60.346C437.175 62.9284 436.456 65.483 435.65 66.5567C435.529 66.7233 434.06 68.4264 433.622 68.6763C432.568 69.2687 431.725 68.9261 431.246 68.6114C430.767 68.2967 430.225 67.6766 430.009 66.6492C429.782 65.5755 429.974 63.3726 429.938 62.9005C429.81 61.1882 429.477 57.8284 428.796 54.9405C428.429 53.3856 428.037 51.9509 427.39 51.2382C424.992 48.6003 421.159 48.9891 417.931 49.4241C417.56 49.4704 417.19 49.526 416.82 49.5722C415.506 49.9702 414.111 50.2664 412.636 50.4422C410.409 50.7106 410.043 48.6096 410.023 48.4707C409.982 48.1653 409.827 46.5918 411.506 45.9624C411.689 45.8976 413.04 45.5922 413.56 45.4719C414.286 45.3052 415.019 45.1757 415.755 45.0554C423.357 42.6304 427.486 35.818 428.181 28.2097ZM430.791 36.6233C433.661 42.7137 438.016 45.657 443.179 46.9898H443.178C439.954 48.7207 437.022 50.8866 435.468 53.0617C434.878 53.8855 434.337 55.5422 433.849 57.4026C433.585 55.6718 433.228 53.8298 432.756 52.2563C432.219 50.4607 431.497 48.9706 430.691 48.0821C429.134 46.3697 427.18 45.4164 425.08 44.9443C427.594 42.6581 429.501 39.8073 430.791 36.6233Z" fill="#676767"/>
<path opacity="0.1" fill-rule="evenodd" clip-rule="evenodd" d="M102.342 114.623C103.305 114.707 104.287 114.679 105.288 114.525C108.802 113.988 111.398 110.271 112.337 106.131C113.276 101.992 112.539 97.516 109.729 95.5363C108.123 94.4039 106.668 94.1235 105.391 94.3912C104.121 94.658 103.006 95.4826 102.084 96.6612C99.5152 99.9476 98.4433 106.049 99.0868 108.946C99.3852 110.286 99.7744 111.605 100.242 112.899C96.4405 111.803 93.0371 108.805 90.0852 104.963C83.6693 96.6154 79.409 84.2349 78.0536 77.5898C77.9808 77.2328 77.6323 77.0036 77.2752 77.0763C76.9181 77.1491 76.6871 77.4972 76.7599 77.8542C78.1423 84.6309 82.4953 97.2534 89.0385 105.767C92.418 110.164 96.3894 113.456 100.819 114.396C104.757 123.965 112.81 132.309 119.577 139.431C119.826 139.695 120.245 139.706 120.51 139.455C120.773 139.204 120.785 138.787 120.534 138.522C114.044 131.691 106.306 123.741 102.342 114.623ZM101.771 113.232C102.847 113.391 103.954 113.395 105.09 113.22C108.131 112.756 110.238 109.423 111.051 105.839C111.548 103.642 111.554 101.332 110.933 99.4572C110.543 98.2785 109.906 97.2756 108.968 96.6156C107.738 95.7487 106.639 95.4773 105.662 95.6834C104.679 95.8888 103.838 96.5604 103.125 97.474C100.783 100.469 99.7899 106.022 100.376 108.659C100.721 110.215 101.194 111.738 101.771 113.232Z" fill="#23A0DD" fill-opacity="0.6"/>
<defs>
<filter id="filter0_d_1232_12165" x="89" y="5" width="325" height="326" filterUnits="userSpaceOnUse" color-interpolation-filters="sRGB">
<feFlood flood-opacity="0" result="BackgroundImageFix"/>
<feColorMatrix in="SourceAlpha" type="matrix" values="0 0 0 0 0 0 0 0 0 0 0 0 0 0 0 0 0 0 127 0" result="hardAlpha"/>
<feOffset dy="8"/>
<feGaussianBlur stdDeviation="17.5"/>
<feComposite in2="hardAlpha" operator="out"/>
<feColorMatrix type="matrix" values="0 0 0 0 0.141176 0 0 0 0 0.635294 0 0 0 0 0.878431 0 0 0 0.2 0"/>
<feBlend mode="normal" in2="BackgroundImageFix" result="effect1_dropShadow_1232_12165"/>
<feBlend mode="normal" in="SourceGraphic" in2="effect1_dropShadow_1232_12165" result="shape"/>
</filter>
<linearGradient id="paint0_linear_1232_12165" x1="251.5" y1="32" x2="251.5" y2="286.101" gradientUnits="userSpaceOnUse">
<stop stop-color="#2AABEE"/>
<stop offset="1" stop-color="#229ED9"/>
</linearGradient>
</defs>
</svg>
