<svg width="89" height="90" viewBox="0 0 89 90" fill="none" xmlns="http://www.w3.org/2000/svg">
<rect y="0.876709" width="88.3701" height="88.3701" rx="22.0925" fill="#0077FF" fill-opacity="0.1"/>
<g clip-path="url(#clip0_583_9212)">
<path d="M14.7285 43.8834C14.7285 30.5528 14.7285 23.8875 18.8698 19.7463C23.0111 15.605 29.6763 15.605 43.007 15.605H45.3635C58.6941 15.605 65.3593 15.605 69.5007 19.7463C73.6419 23.8875 73.6419 30.5528 73.6419 43.8834V46.24C73.6419 59.5706 73.6419 66.2358 69.5007 70.3772C65.3593 74.5184 58.6941 74.5184 45.3635 74.5184H43.007C29.6763 74.5184 23.0111 74.5184 18.8698 70.3772C14.7285 66.2358 14.7285 59.5706 14.7285 46.24V43.8834Z" fill="#0077FF"/>
<path d="M46.075 58.0474C32.6477 58.0474 24.989 48.8421 24.6699 33.5247H31.3959C31.6168 44.7673 36.5752 49.5295 40.5028 50.5114V33.5247H46.8362V43.2208C50.7147 42.8035 54.789 38.385 56.1637 33.5247H62.497C61.4415 39.5142 57.023 43.9327 53.8809 45.7492C57.023 47.222 62.0554 51.076 63.9701 58.0474H56.9984C55.501 53.3834 51.7702 49.7749 46.8362 49.284V58.0474H46.075Z" fill="white"/>
</g>
<defs>
<clipPath id="clip0_583_9212">
<rect width="58.9134" height="58.9134" fill="white" transform="translate(14.7285 15.605)"/>
</clipPath>
</defs>
</svg>
