<svg width="89" height="90" viewBox="0 0 89 90" fill="none" xmlns="http://www.w3.org/2000/svg">
<rect y="0.753174" width="88.3701" height="88.3701" rx="22.0925" fill="#FF0000" fill-opacity="0.1"/>
<g clip-path="url(#clip0_583_9224)">
<path d="M72.4102 31.1795C72.077 29.9238 71.4207 28.7778 70.5065 27.8561C69.5925 26.9344 68.4528 26.2694 67.2016 25.9276C62.5957 24.6868 44.1852 24.6868 44.1852 24.6868C44.1852 24.6868 25.7748 24.6868 21.1688 25.9276C19.9176 26.2694 18.778 26.9344 17.8639 27.8561C16.9498 28.7778 16.2934 29.9238 15.9603 31.1795C14.7285 35.8144 14.7285 45.4797 14.7285 45.4797C14.7285 45.4797 14.7285 55.1452 15.9603 59.7799C16.2934 61.0357 16.9498 62.1818 17.8639 63.1034C18.778 64.0251 19.9176 64.6901 21.1688 65.0319C25.7748 66.2727 44.1852 66.2727 44.1852 66.2727C44.1852 66.2727 62.5957 66.2727 67.2016 65.0319C68.4528 64.6901 69.5925 64.0251 70.5065 63.1034C71.4207 62.1818 72.077 61.0357 72.4102 59.7799C73.6419 55.1452 73.6419 45.4797 73.6419 45.4797C73.6419 45.4797 73.6419 35.8144 72.4102 31.1795Z" fill="#FF0000"/>
<path d="M36.8203 53.2861L52.2182 44.5096L36.8203 35.7329V53.2861Z" fill="white"/>
</g>
<defs>
<clipPath id="clip0_583_9224">
<rect width="58.9134" height="58.9134" fill="white" transform="translate(14.7285 15.4814)"/>
</clipPath>
</defs>
</svg>
