<svg width="90" height="90" viewBox="0 0 90 90" fill="none" xmlns="http://www.w3.org/2000/svg">
<rect x="0.876953" y="0.876709" width="88.3701" height="88.3701" rx="22.0925" fill="#9146FF" fill-opacity="0.1"/>
<g clip-path="url(#clip0_583_9232)">
<path d="M66.1022 42.957L57.686 51.3731H49.2698L41.9057 58.7373V51.3731H32.4375V19.8125H66.1022V42.957Z" fill="white"/>
<path d="M30.3327 15.605L19.8125 26.1252V63.9979H32.4368V74.5182L42.957 63.9979H51.3731L70.3095 45.0616V15.605H30.3327ZM66.1014 42.9575L57.6853 51.3737H49.2691L41.9049 58.7378V51.3737H32.4368V19.8131H66.1014V42.9575Z" fill="#9146FF"/>
<path d="M59.7882 27.1775H55.5801V39.8017H59.7882V27.1775Z" fill="#9146FF"/>
<path d="M48.2159 27.1775H44.0078V39.8017H48.2159V27.1775Z" fill="#9146FF"/>
</g>
<defs>
<clipPath id="clip0_583_9232">
<rect width="58.9134" height="58.9134" fill="white" transform="translate(15.6055 15.605)"/>
</clipPath>
</defs>
</svg>
