<svg width="90" height="90" viewBox="0 0 90 90" fill="none" xmlns="http://www.w3.org/2000/svg">
<rect x="0.876953" y="0.753174" width="88.3701" height="88.3701" rx="22.0925" fill="#1877F2" fill-opacity="0.1"/>
<g clip-path="url(#clip0_583_9228)">
<path d="M74.5189 44.9382C74.5189 28.6697 61.3306 15.4814 45.0622 15.4814C28.7937 15.4814 15.6055 28.6697 15.6055 44.9382C15.6055 59.6406 26.3773 71.8272 40.4596 74.037V53.453H32.9803V44.9382H40.4596V38.4485C40.4596 31.0659 44.8573 26.988 51.5859 26.988C54.8077 26.988 58.1796 27.5633 58.1796 27.5633V34.8124H54.4654C50.8062 34.8124 49.6648 37.0833 49.6648 39.415V44.9382H57.8344L56.5285 53.453H49.6648V74.037C63.7471 71.8272 74.5189 59.6406 74.5189 44.9382Z" fill="#1877F2"/>
<path d="M56.5287 53.4531L57.8346 44.9382H49.665V39.4151C49.665 37.0856 50.8064 34.8125 54.4656 34.8125H58.1798V27.5634C58.1798 27.5634 54.809 26.988 51.5861 26.988C44.8575 26.988 40.4598 31.066 40.4598 38.4485V44.9382H32.9805V53.4531H40.4598V74.037C43.5096 74.5142 46.6151 74.5142 49.665 74.037V53.4531H56.5287Z" fill="white"/>
</g>
<defs>
<clipPath id="clip0_583_9228">
<rect width="58.9134" height="58.9134" fill="white" transform="translate(15.6055 15.4814)"/>
</clipPath>
</defs>
</svg>
